<?xml version="1.0" standalone="no"?>
<!DOCTYPE svg PUBLIC "-//W3C//DTD SVG 20010904//EN"
 "http://www.w3.org/TR/2001/REC-SVG-20010904/DTD/svg10.dtd">
<svg version="1.0" xmlns="http://www.w3.org/2000/svg"
 width="567.000000pt" height="781.000000pt" viewBox="0 0 567.000000 781.000000"
 preserveAspectRatio="xMidYMid meet">

<g transform="translate(0.000000,781.000000) scale(0.100000,-0.100000)"
fill="#000000" stroke="none">
<path d="M4560 7788 c-36 -19 -94 -83 -303 -338 -142 -173 -326 -398 -410
-500 -210 -257 -274 -326 -321 -351 -23 -11 -48 -29 -57 -38 -14 -15 -42 -19
-170 -24 -457 -18 -652 -126 -1081 -601 -105 -116 -207 -229 -227 -251 -20
-22 -111 -128 -201 -235 -547 -646 -955 -905 -1497 -949 -78 -6 -123 -15 -144
-28 -111 -65 -97 -175 49 -368 161 -215 364 -372 602 -467 41 -16 76 -31 78
-33 1 -1 -14 -35 -34 -75 -88 -176 -113 -308 -96 -498 7 -70 12 -161 12 -203
0 -140 -63 -291 -176 -424 l-65 -75 64 0 c73 0 154 21 213 56 l41 23 16 -122
c25 -192 30 -313 17 -426 -11 -105 -46 -234 -81 -304 l-19 -37 23 0 c32 0 156
62 192 96 17 16 39 42 51 58 l20 28 13 -112 c15 -143 64 -335 136 -530 56
-156 85 -216 125 -258 29 -31 34 -23 19 29 -15 51 -16 263 -2 298 9 22 13 19
89 -70 157 -183 269 -279 410 -348 85 -43 222 -81 288 -81 l38 0 -35 39 c-50
55 -84 117 -101 186 -18 67 -21 143 -6 165 5 8 10 10 10 5 0 -31 214 -254 340
-355 125 -99 286 -201 434 -274 189 -92 181 -92 145 -6 -33 77 -57 227 -42
254 8 14 23 5 104 -62 153 -127 298 -312 366 -469 15 -34 30 -63 34 -63 10 0
58 189 71 278 6 45 15 82 19 82 13 0 162 -153 213 -218 27 -35 63 -88 81 -118
l33 -55 21 63 c24 75 41 173 41 246 l0 53 27 -27 c76 -77 200 -99 500 -91 225
7 326 17 288 31 -144 51 -247 180 -321 401 -52 158 -80 396 -55 484 6 23 8 22
55 -30 69 -77 134 -214 137 -289 2 -79 69 215 94 411 22 182 20 475 -6 684
-31 253 -16 374 60 465 l30 35 30 -29 c50 -48 81 -120 82 -190 l0 -61 15 40
c52 140 63 367 25 510 -27 104 -97 244 -160 323 -28 34 -49 62 -46 62 3 0 22
-7 41 -15 57 -23 113 -73 144 -128 l29 -50 6 35 c12 64 -14 146 -96 305 -112
217 -127 288 -78 384 23 47 102 116 141 124 31 7 30 7 -20 24 -116 40 -183
109 -190 198 l-5 55 69 62 c174 155 252 259 300 401 24 71 27 97 30 235 4 233
15 278 184 725 121 320 181 458 299 689 100 195 116 251 109 383 -6 108 -31
182 -92 266 -49 69 -104 112 -159 122 -49 9 -124 -24 -133 -59 -6 -25 -6 -25
-90 -19 -103 7 -105 1 -32 -81 l52 -58 -24 -45 c-28 -52 -84 -103 -147 -133
-25 -12 -47 -20 -48 -18 -2 2 14 74 35 161 48 197 89 434 97 552 7 105 -7 142
-75 209 -27 26 -51 66 -76 125 -67 160 -150 238 -263 248 -47 4 -66 0 -103
-19z m-1341 -1660 c-17 -33 -46 -85 -66 -113 -28 -43 -41 -54 -71 -59 -105
-19 -301 -46 -331 -46 l-35 0 35 36 c43 45 142 120 191 145 27 14 255 87 306
98 1 1 -12 -27 -29 -61z"/>
</g>
</svg>
