<?xml version="1.0" standalone="no"?>
<!DOCTYPE svg PUBLIC "-//W3C//DTD SVG 20010904//EN"
 "http://www.w3.org/TR/2001/REC-SVG-20010904/DTD/svg10.dtd">
<svg version="1.0" xmlns="http://www.w3.org/2000/svg"
 width="2000.000000pt" height="2000.000000pt" viewBox="0 0 2000.000000 2000.000000"
 preserveAspectRatio="xMidYMid meet">

<g transform="translate(0.000000,2000.000000) scale(0.100000,-0.100000)"
fill="#000000" stroke="none">
<path d="M4090 17008 c-130 -88 -173 -281 -174 -778 0 -304 13 -453 64 -714
49 -248 108 -396 195 -486 l34 -35 -19 -90 c-10 -49 -28 -164 -40 -255 -24
-190 -36 -220 -139 -380 -83 -127 -139 -236 -179 -350 -32 -91 -56 -217 -50
-263 l3 -29 71 50 c39 28 98 77 132 109 34 32 62 56 62 53 0 -3 -16 -64 -35
-135 -82 -314 -145 -433 -348 -661 -93 -104 -146 -192 -183 -300 -32 -98 -50
-241 -38 -308 l9 -50 84 112 c45 62 84 112 85 112 1 0 2 -84 3 -187 0 -148 5
-209 21 -288 41 -201 122 -368 240 -496 35 -38 67 -69 70 -69 4 0 7 37 7 83 0
77 28 217 44 217 3 0 37 -75 75 -167 135 -331 270 -577 411 -751 l50 -62 6
103 c4 56 7 104 8 107 1 3 16 -29 34 -70 40 -91 94 -180 247 -410 180 -271
238 -379 280 -525 l17 -60 13 40 c6 22 14 93 17 157 l5 118 81 -108 c103 -136
249 -288 351 -364 93 -69 214 -130 309 -155 64 -17 70 -17 135 0 158 40 352
163 492 313 56 61 182 214 235 288 l20 28 2 -103 c1 -57 8 -129 16 -159 l14
-55 12 45 c42 150 122 297 324 597 71 106 156 245 188 310 l59 118 0 -90 c0
-50 4 -96 9 -104 6 -10 23 5 64 55 134 168 269 417 403 747 40 100 71 163 75
155 19 -35 39 -144 39 -217 0 -45 4 -81 9 -81 15 0 109 110 162 189 123 187
174 401 168 702 l-4 160 22 -28 c13 -15 51 -67 85 -115 35 -48 66 -87 71 -87
16 -2 7 204 -13 285 -37 156 -88 242 -247 422 -105 118 -167 216 -220 346 -33
83 -95 290 -109 361 l-7 40 71 -67 c75 -71 190 -154 199 -144 12 11 -19 183
-47 268 -37 110 -111 257 -189 375 -101 155 -121 209 -136 373 -3 41 -18 135
-31 209 -27 148 -31 128 34 201 86 96 157 333 207 691 26 179 32 644 11 844
-21 204 -35 270 -69 328 -40 67 -94 100 -173 105 -78 5 -127 -16 -198 -85 -27
-26 -188 -226 -359 -443 -170 -217 -311 -396 -313 -398 -1 -2 -45 10 -98 27
-218 70 -573 123 -831 124 -258 1 -606 -48 -835 -118 -47 -15 -93 -27 -102
-28 -12 -1 -124 133 -356 428 -239 304 -351 439 -383 460 -37 25 -55 30 -119
33 -65 3 -79 1 -110 -20z m979 -2479 c35 -6 86 -19 114 -29 53 -20 277 -150
277 -161 0 -8 -97 -35 -178 -49 -63 -11 -63 -11 -105 21 -95 73 -267 221 -267
230 0 9 47 5 159 -12z m1991 16 c0 -10 -169 -156 -264 -228 -42 -32 -55 -36
-85 -32 -50 8 -211 47 -211 51 0 5 172 110 226 137 67 34 152 58 238 67 39 4
77 8 84 9 6 0 12 -1 12 -4z"/>
<path d="M14625 17012 c-76 -27 -166 -81 -320 -192 -374 -272 -527 -434 -651
-687 l-45 -92 -52 -10 c-91 -17 -127 -21 -387 -36 -339 -19 -456 -41 -920
-168 -249 -69 -340 -89 -485 -109 -103 -14 -423 -17 -505 -5 l-54 8 19 -21
c30 -34 168 -97 252 -116 l77 -17 -84 -17 c-136 -28 -251 -76 -365 -153 -159
-107 -233 -193 -380 -441 -100 -169 -194 -287 -260 -328 l-30 -18 36 0 c20 0
80 11 134 25 112 28 237 91 332 167 78 62 78 57 -2 -104 -62 -125 -151 -258
-232 -348 -55 -61 -56 -63 -28 -56 88 20 147 45 229 97 50 31 92 56 93 56 1
-1 -10 -42 -23 -92 -13 -49 -31 -139 -39 -198 -15 -110 -19 -362 -6 -407 7
-23 8 -22 15 15 13 68 75 181 138 250 33 36 62 64 64 63 2 -2 -3 -40 -11 -83
-10 -53 -14 -157 -15 -311 0 -380 -24 -523 -115 -706 -58 -115 -123 -210 -240
-353 -52 -63 -90 -115 -85 -115 17 0 135 47 190 76 30 16 59 31 63 33 18 7
-43 -97 -89 -152 -26 -32 -93 -95 -148 -139 l-101 -81 57 6 c69 8 205 50 270
83 26 13 49 24 51 24 5 0 -9 -107 -23 -175 -32 -155 -135 -391 -253 -580 -110
-177 -252 -330 -371 -400 -25 -15 -46 -28 -46 -29 0 -5 114 15 265 45 322 66
766 214 1008 336 27 13 51 23 53 21 2 -3 -20 -22 -48 -44 -103 -78 -245 -231
-293 -314 -7 -12 -6 -13 6 -3 45 36 187 76 409 114 172 29 249 55 440 150 157
77 289 134 296 126 2 -1 -10 -43 -25 -92 -16 -50 -32 -109 -36 -133 l-7 -43
44 33 c98 75 239 117 393 118 408 1 661 98 889 341 l76 81 0 -87 0 -86 63 78
c73 92 167 192 295 317 109 107 118 110 302 95 196 -16 379 -68 565 -162 113
-56 175 -96 325 -211 58 -44 132 -92 166 -107 147 -67 369 -78 478 -25 85 42
136 118 136 202 0 37 -33 109 -54 121 -15 8 -14 15 9 66 26 55 46 167 30 167
-4 0 -37 -21 -72 -46 l-65 -46 -35 33 c-47 46 -92 136 -101 208 l-8 59 50 -38
c147 -110 372 -163 691 -164 161 -1 174 3 261 86 47 44 55 48 75 38 29 -16
114 -8 163 15 50 24 114 89 170 175 37 55 46 78 46 112 0 40 -5 47 -79 119
-43 42 -211 182 -373 312 -419 335 -584 499 -709 705 -89 146 -114 234 -149
519 -41 332 -82 442 -237 645 -147 191 -470 518 -696 704 l-85 69 -7 60 c-5
33 -9 242 -10 465 -2 241 -7 435 -14 480 -33 220 -45 240 -145 240 -33 -1 -83
-8 -111 -18z m690 -2682 c119 -34 202 -81 313 -180 62 -55 100 -96 95 -101 -5
-5 -59 -10 -120 -11 -130 -3 -114 -11 -232 127 -127 148 -154 185 -140 185 8
0 46 -9 84 -20z"/>
<path d="M15470 10728 c-37 -19 -113 -106 -443 -508 -455 -556 -553 -670 -572
-670 -7 0 -33 -15 -57 -33 l-44 -34 -149 -6 c-355 -14 -546 -89 -802 -316
-100 -88 -459 -482 -708 -775 -353 -418 -618 -645 -920 -791 -186 -90 -359
-137 -572 -154 -122 -10 -160 -24 -197 -74 -31 -42 -27 -107 11 -182 127 -248
412 -498 698 -610 39 -15 71 -28 73 -30 1 -1 -14 -35 -34 -75 -88 -176 -113
-308 -96 -498 7 -70 12 -161 12 -203 0 -140 -63 -291 -176 -424 l-65 -75 64 0
c73 0 154 21 213 56 l41 23 16 -122 c25 -192 30 -313 17 -426 -12 -106 -46
-234 -82 -305 l-20 -39 35 6 c78 12 181 80 233 151 l20 28 13 -112 c6 -62 27
-172 46 -244 37 -147 124 -397 162 -467 26 -48 72 -103 80 -96 2 3 -1 25 -8
48 -14 50 -16 250 -2 293 l9 29 80 -94 c144 -168 236 -250 351 -317 114 -65
257 -112 346 -112 l39 0 -41 46 c-45 52 -85 129 -100 195 -13 56 -14 130 -1
149 5 8 10 10 10 4 0 -30 219 -258 340 -355 109 -88 295 -205 434 -273 188
-92 181 -92 145 -7 -32 77 -55 213 -42 249 8 22 13 20 105 -57 155 -130 297
-311 365 -468 15 -34 30 -63 34 -63 10 0 58 189 71 278 6 45 15 82 20 82 13 0
159 -150 212 -219 27 -34 63 -87 81 -117 l33 -54 11 28 c23 58 42 151 48 238
l6 90 24 -23 c34 -35 118 -70 193 -82 87 -14 384 -14 510 0 l101 12 -59 28
c-154 74 -286 310 -328 589 -14 98 -17 237 -5 279 6 23 8 22 55 -30 59 -65
114 -172 130 -253 l13 -60 21 79 c27 104 59 276 72 390 17 158 12 462 -11 650
-31 253 -16 374 60 465 l30 35 30 -29 c50 -48 81 -120 82 -190 l0 -61 15 40
c52 140 63 367 25 510 -27 104 -97 244 -160 323 -28 34 -49 62 -46 62 3 0 24
-9 48 -20 65 -31 113 -75 140 -131 l26 -50 6 44 c12 80 -15 158 -123 357 -83
154 -97 242 -52 331 26 50 89 108 132 121 l38 11 -50 17 c-112 38 -181 110
-188 197 l-5 55 69 62 c173 154 249 255 297 395 28 79 30 99 33 241 4 233 18
286 202 772 108 284 162 407 280 638 101 200 117 255 110 387 -6 108 -31 182
-92 266 -49 69 -104 112 -159 122 -49 9 -124 -24 -133 -59 -6 -25 -6 -25 -90
-19 -103 7 -107 -1 -33 -81 50 -55 51 -57 39 -87 -19 -46 -98 -122 -154 -147
-26 -13 -50 -22 -51 -20 -2 2 14 74 35 161 44 180 88 425 97 538 9 113 0 140
-62 208 -39 42 -65 82 -90 142 -66 158 -149 236 -262 246 -47 4 -66 0 -103
-19z m-1341 -1660 c-17 -33 -46 -85 -66 -113 -38 -59 -20 -52 -238 -85 -71
-11 -146 -20 -164 -20 l-35 0 35 36 c49 51 147 124 199 147 32 15 254 87 298
96 1 1 -12 -27 -29 -61z"/>
<path d="M9025 8201 c-27 -10 -113 -43 -190 -73 -313 -124 -630 -213 -1010
-283 l-139 -25 -40 39 c-86 82 -212 153 -354 201 -132 44 -233 61 -387 67
-165 6 -243 -5 -471 -72 -341 -101 -344 -101 -959 -5 -516 81 -631 90 -695 56
-52 -27 -70 -46 -70 -73 0 -44 123 -207 267 -354 l75 -76 -104 -75 c-56 -41
-161 -114 -232 -163 -232 -159 -292 -213 -504 -460 -290 -337 -446 -480 -619
-567 -57 -28 -101 -54 -98 -58 7 -11 88 -30 126 -30 l32 0 -20 -22 c-37 -41
-73 -108 -127 -234 -89 -206 -110 -234 -341 -440 -44 -39 -95 -92 -113 -118
-30 -42 -31 -46 -13 -46 31 0 121 36 186 75 32 20 60 34 62 32 2 -2 -30 -103
-71 -224 -110 -322 -188 -496 -305 -673 -31 -47 -57 -88 -59 -92 -2 -5 27 -8
65 -8 60 0 104 8 191 35 22 7 20 3 -17 -58 -78 -127 -133 -251 -193 -432 -35
-107 -130 -477 -123 -483 16 -16 437 -94 655 -121 220 -27 414 -41 590 -41
l145 -1 -35 -30 c-44 -37 -202 -116 -253 -125 -80 -14 -48 -25 168 -56 108
-15 468 -15 585 1 194 26 420 79 545 127 14 6 10 -4 -18 -37 -20 -25 -46 -66
-57 -91 -22 -51 -36 -144 -26 -183 7 -26 9 -24 100 68 103 103 178 158 271
197 58 24 66 25 253 22 328 -5 528 48 735 194 26 19 49 34 51 34 8 0 -26 -113
-50 -167 -13 -31 -24 -57 -24 -59 0 -1 15 2 33 7 17 5 108 23 201 40 198 35
295 65 389 120 127 75 248 211 305 341 11 25 39 106 62 179 39 125 80 219 113
263 13 17 16 10 37 -80 12 -54 24 -101 25 -102 2 -2 34 29 72 69 37 39 111
107 163 149 168 136 189 170 219 361 35 213 77 343 173 530 73 142 188 297
299 404 136 131 139 132 280 156 168 29 277 61 388 115 156 77 280 219 325
373 20 67 21 180 2 224 -29 71 -122 117 -193 98 -35 -10 -40 -9 -73 23 -61 59
-148 89 -136 49 16 -57 28 -133 23 -146 -7 -18 -110 -47 -169 -47 -45 0 -46 1
-74 53 -53 99 -32 220 57 322 17 19 80 76 140 126 244 203 360 421 362 679 0
82 -4 118 -20 164 -16 46 -19 65 -11 85 6 14 10 55 11 91 0 202 -193 332 -388
261z m-1705 -547 c69 -9 131 -18 139 -20 16 -5 -131 -125 -191 -155 l-39 -20
-115 30 c-183 48 -317 92 -308 101 12 10 160 58 215 69 70 14 164 12 299 -5z"/>
</g>
</svg>
